<svg width="56" height="50" viewBox="0 0 56 50" fill="none" xmlns="http://www.w3.org/2000/svg">
<rect width="56" height="50" rx="6" fill="#D9D9D9"/>
<path d="M35.7143 27.5459H20.2857C19.9447 27.5459 19.6177 27.6896 19.3766 27.9453C19.1355 28.201 19 28.5478 19 28.9094V31.6365C19 31.9981 19.1355 32.3449 19.3766 32.6006C19.6177 32.8563 19.9447 33 20.2857 33H35.7143C36.0553 33 36.3823 32.8563 36.6234 32.6006C36.8645 32.3449 37 31.9981 37 31.6365V28.9094C37 28.5478 36.8645 28.201 36.6234 27.9453C36.3823 27.6896 36.0553 27.5459 35.7143 27.5459ZM35.7143 31.6365H25.4286V28.9094H35.7143V31.6365ZM33.8661 21.7578C34.5089 20.5451 34.4623 19.9077 34.3771 19.635C34.3398 19.5049 34.2658 19.3901 34.165 19.306C34.0875 19.2699 34.0174 19.2179 33.9589 19.153C33.9004 19.0882 33.8545 19.0116 33.8239 18.9279C33.7933 18.8442 33.7787 18.7548 33.7807 18.6651C33.7828 18.5753 33.8016 18.4868 33.836 18.4048C33.8704 18.3227 33.9197 18.2487 33.9812 18.1869C34.0427 18.1252 34.115 18.0769 34.1941 18.0448C34.2732 18.0128 34.3575 17.9977 34.4422 18.0003C34.5268 18.0029 34.6101 18.0232 34.6873 18.0601C34.9035 18.1768 35.0953 18.3383 35.2516 18.535C35.4078 18.7318 35.5253 18.9597 35.597 19.2055C35.867 20.0696 35.6621 21.1527 34.9862 22.4259C34.3434 23.6386 34.39 24.2769 34.4752 24.5496C34.5127 24.6794 34.5867 24.7939 34.6873 24.8777C34.7649 24.9138 34.8349 24.9658 34.8934 25.0307C34.952 25.0955 34.9978 25.1721 35.0284 25.2558C35.059 25.3395 35.0736 25.4289 35.0716 25.5186C35.0695 25.6084 35.0507 25.6969 35.0163 25.7789C34.9819 25.861 34.9326 25.935 34.8711 25.9968C34.8097 26.0585 34.7373 26.1068 34.6582 26.1389C34.5791 26.1709 34.4948 26.186 34.4102 26.1834C34.3255 26.1808 34.2422 26.1605 34.165 26.1236C33.9488 26.0071 33.7568 25.8456 33.6005 25.6489C33.4443 25.4521 33.3269 25.2241 33.2554 24.9782C32.9878 24.1141 33.1927 23.0293 33.8661 21.7578ZM30.6518 21.7578C31.2946 20.5451 31.248 19.9077 31.1629 19.635C31.1255 19.5049 31.0515 19.3901 30.9507 19.306C30.8732 19.2699 30.8031 19.2179 30.7446 19.153C30.6861 19.0882 30.6402 19.0116 30.6096 18.9279C30.5791 18.8442 30.5644 18.7548 30.5665 18.6651C30.5685 18.5753 30.5873 18.4868 30.6217 18.4048C30.6561 18.3227 30.7055 18.2487 30.7669 18.1869C30.8284 18.1252 30.9007 18.0769 30.9798 18.0448C31.0589 18.0128 31.1432 17.9977 31.2279 18.0003C31.3125 18.0029 31.3958 18.0232 31.473 18.0601C31.6892 18.1768 31.881 18.3383 32.0373 18.535C32.1935 18.7318 32.311 18.9597 32.3827 19.2055C32.6527 20.0696 32.4478 21.1527 31.772 22.4259C31.1291 23.6386 31.1757 24.2769 31.2609 24.5496C31.2984 24.6794 31.3724 24.7939 31.473 24.8777C31.5506 24.9138 31.6206 24.9658 31.6791 25.0307C31.7377 25.0955 31.7835 25.1721 31.8141 25.2558C31.8447 25.3395 31.8594 25.4289 31.8573 25.5186C31.8552 25.6084 31.8364 25.6969 31.802 25.7789C31.7676 25.861 31.7183 25.935 31.6568 25.9968C31.5954 26.0585 31.523 26.1068 31.4439 26.1389C31.3648 26.1709 31.2805 26.186 31.1959 26.1834C31.1112 26.1808 31.0279 26.1605 30.9507 26.1236C30.7345 26.0071 30.5425 25.8456 30.3863 25.6489C30.23 25.4521 30.1126 25.2241 30.0411 24.9782C29.7735 24.1141 29.9784 23.0293 30.6518 21.7578Z" fill="black"/>
</svg>
