<svg width="56" height="50" viewBox="0 0 56 50" fill="none" xmlns="http://www.w3.org/2000/svg">
<rect width="56" height="50" rx="6" fill="#D9D9D9"/>
<path d="M22.5369 15L21.8523 15.1909C22.252 16.6117 22.8005 17.3582 23.4256 17.7484C24.0591 18.1471 24.7905 18.181 25.5899 18.1089C26.653 18.0113 27.8521 17.7017 29.0767 18.1556C29.4084 18.304 29.7571 18.4927 30.127 18.743C30.3226 18.6836 30.4927 18.6073 30.6628 18.5521C30.6628 18.5521 30.7988 18.1174 30.5777 17.5618C30.3864 17.074 29.9101 16.459 28.7068 16.0264L28.4686 16.6881C29.2085 16.9595 29.6082 17.2946 29.8123 17.6127C29.8421 17.6593 29.8634 17.7017 29.8846 17.7441C29.723 17.6593 29.5572 17.583 29.3956 17.5236C28.2008 16.9722 27.244 16.9383 26.4786 16.8535C26.0704 16.811 25.726 16.7602 25.4411 16.5566C25.1562 16.3487 24.9436 15.9882 24.7607 15.3605L24.0804 15.5599C24.3228 16.3912 24.6459 16.8492 25.0244 17.1249C25.1945 17.2479 25.3773 17.337 25.5729 17.4006C24.9011 17.4366 24.2675 17.429 23.7998 17.1504C23.281 16.8238 22.8685 16.1791 22.5369 15ZM26.3426 15.1527C26.3043 15.6277 26.3893 16.0137 26.5297 16.3275C26.8571 16.3683 27.142 16.3742 27.4396 16.4251C27.21 16.1706 27.0059 15.7804 27.0484 15.2036L26.3426 15.1527ZM31.4579 15.7253L30.9944 16.2554C31.3431 16.5608 31.4409 16.9256 31.4409 17.2352C31.2538 17.0689 31.0837 16.9582 30.8839 16.8577C31.19 17.2148 31.2326 17.8485 31.2538 18.1895L31.9129 18.2616C31.9129 18.2616 32.6613 16.7686 31.4579 15.7253ZM28.0264 18.6666C27.2823 18.7515 26.8868 18.5564 26.6487 19.2519C26.6487 19.2519 27.4481 20.4353 29.5785 20.4056C29.4594 20.8891 29.5147 21.2454 29.5147 21.6737C29.5147 23.0988 28.3666 24.3415 25.8365 24.3415C24.5524 24.3415 22.9918 24.5706 21.8012 25.211C20.955 25.6648 20.293 26.3222 20 27.2341L20.3321 27.6964L20.9678 27.7049V30.3218L20.1922 31.5221L20.415 35H21.1506L21.2144 32.2007C21.5801 31.9887 22.4178 31.4373 23.1322 30.589C24.1017 29.4481 24.8458 27.7897 23.9698 25.7369L24.6247 25.4612C25.3433 27.1451 25.0924 28.6041 24.4631 29.7789C25.6665 29.7408 26.6997 29.6644 27.5757 29.5202L27.3758 27.1323L28.0817 27.073L28.7535 35H29.4849L29.6082 29.8383C30.1908 29.5923 31.5175 28.6889 32.1383 25.5503C32.2148 25.1686 32.2573 24.8463 32.2786 24.5706C32.3764 23.8707 32.4317 23.0819 32.4487 22.1827L31.4069 21.8561H34.6088L34.9192 21.1563C34.6173 21.169 34.2559 21.0121 34.2559 21.0121L34.3282 20.6728H35L31.3644 18.7939C30.9604 18.9466 30.5352 19.1459 30.2376 19.3877C29.9994 19.218 29.1745 18.6878 28.0264 18.6666ZM32.0873 28.2775C31.6748 29.0452 31.2326 29.6178 30.8499 30.0249L32.8526 30.9071L31.9639 32.9217L32.6018 33.2186L34.022 30.4703L32.1383 28.884C32.1213 28.7865 32.1 28.5956 32.0873 28.2775ZM25.5474 30.4321C25.0669 30.4618 24.5566 30.483 24.0124 30.4915C23.6424 30.9792 23.2172 31.45 22.775 31.8148L23.1449 34.9958H23.872V32.2389C24.1824 31.9844 24.9308 31.3355 25.5474 30.4321Z" fill="black"/>
</svg>
