<svg width="56" height="50" viewBox="0 0 56 50" fill="none" xmlns="http://www.w3.org/2000/svg">
<rect width="56" height="50" rx="6" fill="#D9D9D9"/>
<path d="M24.1349 16C22.7663 16 21.4669 16.3301 20.4118 16.9715C19.2057 17.7045 18.3256 18.8623 18.0745 20.3531C17.8238 21.8391 18.1929 23.6383 19.3823 25.6946C20.2126 27.1243 21.2342 28.2569 21.8791 29.4497C22.3981 30.4818 22.6492 31.3252 22.532 32.4698C21.9168 32.5863 21.4552 33.1004 21.4552 33.7229C21.4552 34.4257 22.0507 35 22.7831 35C23.5197 35 24.1139 34.4257 24.1139 33.7229C24.1139 33.1927 23.7791 32.7429 23.302 32.5461C23.3439 32.1365 23.3439 31.7509 23.3062 31.3774C23.6912 30.9437 24.139 30.7228 24.6957 30.6505C25.3109 30.5662 26.0642 30.6786 26.9263 30.9758C27.1397 31.3654 27.3323 31.779 27.4997 32.2248C27.1146 32.4417 26.8593 32.8433 26.8593 33.3012C26.8593 33.9879 27.4411 34.5462 28.1567 34.5462C28.8765 34.5462 29.4583 33.9879 29.4583 33.3012C29.4583 32.6465 28.9351 32.1084 28.2655 32.0562C28.0981 31.5903 27.9014 31.1565 27.6838 30.7469C28.1107 30.3493 28.8347 30.0762 29.6759 29.9196C30.5966 29.7469 31.6303 29.7027 32.4966 29.6786C32.7896 29.9356 33.0784 30.2087 33.3588 30.4939C33.3378 30.5822 33.3253 30.6786 33.3253 30.775C33.3253 31.4337 33.8819 31.9638 34.5641 31.9638C35.2504 31.9638 35.8028 31.4337 35.8028 30.775C35.8028 30.1204 35.2504 29.5862 34.5641 29.5862C34.2753 29.5862 34.0074 29.6826 33.7982 29.8433C33.5262 29.5742 33.2499 29.3212 32.9695 29.0762C32.9277 27.1042 33.5262 25.558 34.5515 24.2889C34.924 24.2006 35.3048 24.0721 35.6982 23.8994C35.9409 24.1283 36.2716 24.2688 36.6357 24.2688C37.3681 24.2688 37.9623 23.6986 37.9623 22.9917C37.9623 22.2889 37.3681 21.7186 36.6357 21.7186C35.9033 21.7186 35.3048 22.2889 35.3048 22.9917C35.3048 23.0761 35.3132 23.1604 35.3299 23.2407C35.0035 23.3813 34.6938 23.4857 34.3925 23.562C33.7438 22.7628 33.6852 22.1363 33.8652 21.4415C34.0577 20.7025 34.5892 19.8912 35.1165 18.9555C35.3801 18.794 35.6187 18.5989 35.8154 18.3683C36.0456 18.5354 36.3302 18.6342 36.6399 18.6342C37.389 18.6342 38 18.0506 38 17.3301C38 16.6101 37.389 16.0265 36.6399 16.0265C35.8907 16.0265 35.2797 16.6101 35.2797 17.3301C35.2797 17.4667 35.3048 17.5984 35.3425 17.7217C34.8738 18.3976 33.974 18.7752 32.8817 18.7936C31.7684 18.8125 30.492 18.4499 29.4206 17.6992C27.7466 16.739 25.8173 16.0213 24.1349 16ZM26.0935 17.004C26.8719 17.196 27.6461 17.5044 28.3827 17.9366L28.3869 18.529C27.6461 17.9976 26.8342 17.4346 26.1144 17.0771L26.0935 17.004ZM23.5071 17.1334L23.6996 17.7671C23.2309 17.5583 22.7412 17.3916 22.2223 17.2816C22.6701 17.1932 23.0886 17.1197 23.5071 17.1334ZM24.3525 17.2426C24.7333 17.3257 25.1225 17.4619 25.449 17.6053L25.8591 19.0888C25.4741 18.7968 25.0807 18.5213 24.6664 18.2743L24.3525 17.2426ZM21.7243 17.9567C22.4985 18.0784 23.21 18.3454 23.8838 18.7085L23.4318 19.4575C22.8459 18.9222 22.2516 18.3832 21.7243 17.9567ZM26.3906 18.0908C26.8426 18.3579 27.2862 18.6639 27.7257 18.9856C27.9475 19.1511 28.1693 19.3206 28.3911 19.4896L28.4036 21.2608C27.914 20.835 27.416 20.3812 26.9012 19.9394L26.3906 18.0908ZM29.1695 18.4462C29.6968 18.7888 30.266 19.0519 30.8393 19.2342L30.8686 20.3692C30.3246 20.0198 29.7596 19.582 29.1737 19.129L29.1695 18.4462ZM21.122 18.4535C21.7745 18.9768 22.4022 19.5499 23.0216 20.1443L22.4399 21.1041C21.8707 20.1965 21.4049 19.284 21.122 18.4535ZM24.5492 19.1049C25.1225 19.4776 25.6708 19.9073 26.2107 20.3652C26.127 20.6101 25.7001 21.2447 25.5369 21.4937C25.0263 21.0037 24.5199 20.5017 24.0051 20.0077L24.5492 19.1049ZM33.953 19.4214C33.6099 20.0077 33.2918 20.582 33.1202 21.1965C32.6515 21.2045 32.166 21.068 31.6596 20.823L31.6261 19.4334C32.4255 19.574 33.2165 19.586 33.953 19.4214ZM19.602 19.7426C19.6146 20.6182 19.7577 21.4013 19.9958 22.1082L19.3158 21.9716C19.3304 21.1483 19.4338 20.3852 19.602 19.7426ZM20.9571 20.0921C21.2275 20.6383 21.5334 21.1443 21.8666 21.6061L21.2995 21.8391C21.1011 21.2246 20.9739 20.6222 20.9571 20.0921ZM29.1779 20.0961C29.7763 20.5338 30.2995 20.9395 30.8896 21.2688L30.9314 23.1042C30.3413 22.7989 29.7638 22.3893 29.1904 21.9234L29.1779 20.0961ZM23.5908 20.6985C24.0888 21.1844 24.5868 21.6824 25.0974 22.1684L24.4111 23.2287C23.8838 22.7829 23.3941 22.3009 22.9463 21.7628L23.5908 20.6985ZM26.8426 20.9073C27.3867 21.3772 27.8889 21.8351 28.366 22.2367L27.6503 23.3853C27.1188 22.9596 26.6082 22.5058 26.1102 22.0359L26.8426 20.9073ZM31.6805 21.6584C32.1116 21.831 32.5552 21.9355 33.0072 21.9475C32.9988 22.5138 33.1579 23.1002 33.5471 23.6986C32.8817 23.7227 32.2916 23.6463 31.7224 23.4496L31.6805 21.6584ZM22.3478 22.2246C22.7622 22.7266 23.21 23.1805 23.6871 23.6022L22.737 23.9235C22.2892 23.4496 21.9084 23.0078 21.628 22.5178L22.3478 22.2246ZM25.6708 22.7066C26.173 23.1724 26.6878 23.6263 27.2318 24.052L26.7129 24.8833C26.127 24.5058 25.5034 24.0801 25.0179 23.7106L25.6708 22.7066ZM28.9728 22.7266C29.5587 23.1805 30.1655 23.5861 30.8142 23.8913L30.1321 25.0359C29.4708 24.6905 28.8514 24.2929 28.2655 23.8592C28.4999 23.4817 28.7384 23.1042 28.9728 22.7266ZM19.4087 22.7588L20.3331 22.9435C20.5562 23.4134 20.8211 23.8512 21.1166 24.2648L19.9644 24.1885C19.7117 23.7588 19.5171 23.2889 19.4087 22.7588ZM24.3692 24.1684C24.8463 24.546 25.3443 24.8954 25.8549 25.2287L24.838 25.558C24.3316 25.2247 23.8126 24.8552 23.3815 24.5018L24.3692 24.1684ZM31.5383 24.1845C32.166 24.3893 32.8984 24.4737 33.4885 24.4496C33.1704 24.9355 32.8984 25.4576 32.6933 26.0199C32.0321 25.8512 31.4127 25.6343 30.831 25.3773C31.0653 24.9797 31.3039 24.5821 31.5383 24.1845ZM27.8512 24.5219C28.4455 24.9516 29.0691 25.3492 29.7387 25.6986L29.2867 26.4577C28.638 26.0601 27.9935 25.6785 27.3699 25.293C27.529 25.0359 27.6922 24.7789 27.8512 24.5219ZM22.5362 24.7869C22.9882 25.2126 23.4987 25.5139 23.9172 25.8552L23.6368 25.9436C23.2476 25.562 22.8207 25.1243 22.5362 24.7869ZM20.519 24.9757C20.9237 24.9998 21.3275 25.0359 21.7326 25.056C22.0507 25.4135 22.3855 25.7749 22.6743 26.0681C22.3688 26.0962 21.9461 26.1042 21.6029 26.1163C21.2149 25.7267 20.814 25.3371 20.519 24.9757ZM26.6752 25.7588C27.3071 26.1484 27.9475 26.5299 28.5878 26.9235L27.5834 27.3573C26.9514 26.9034 26.2358 26.4456 25.6582 26.0841L26.6752 25.7588ZM30.4376 26.036C31.0695 26.3171 31.7433 26.554 32.4632 26.7388C32.325 27.2769 32.2372 27.8432 32.2079 28.4456C31.4671 27.8633 30.7054 27.3492 29.9437 26.8673C30.107 26.5902 30.2744 26.3131 30.4376 26.036ZM24.7208 26.3854C25.4364 26.8512 26.1437 27.281 26.7631 27.7107L25.8047 28.1244C25.2983 27.5621 24.7668 27.044 24.2479 26.538L24.7208 26.3854ZM23.415 26.803C23.9005 27.2729 24.386 27.7388 24.8547 28.2328H23.8168C23.369 27.7268 22.8793 27.2769 22.3981 26.8392C22.737 26.8352 23.076 26.803 23.415 26.803ZM21.2865 26.8793C21.7787 27.3332 22.2767 27.7709 22.7412 28.2328H22.0465C21.7452 27.779 21.4221 27.3332 21.0982 26.8834C21.161 26.8834 21.2241 26.8793 21.2865 26.8793ZM29.3746 27.4095C30.1363 27.8914 30.8896 28.3975 31.622 28.9597C30.7933 29.0119 30.0484 29.0842 29.3327 29.2208C29.0774 28.7268 28.7008 28.293 28.2488 27.8954C28.6213 27.7308 28.9979 27.5701 29.3746 27.4095ZM27.462 28.2328C27.9349 28.6143 28.3116 29.0079 28.5585 29.4256C28.0856 29.5782 27.6503 29.787 27.2988 30.0762C26.9974 29.5902 26.6668 29.1445 26.3237 28.7228L27.462 28.2328ZM22.5069 28.9838H23.436C23.6996 29.3011 23.9423 29.6344 24.1474 29.9959C23.7833 30.1003 23.4443 30.265 23.1388 30.4979C22.9672 29.9356 22.7622 29.4376 22.5069 28.9838ZM24.4194 28.9838H25.5327C25.8173 29.3171 26.0893 29.6625 26.3446 30.028C25.8591 29.9156 25.3988 29.8593 24.9593 29.8754C24.7877 29.5581 24.5994 29.2368 24.4194 28.9838Z" fill="black"/>
</svg>
