<svg width="56" height="50" viewBox="0 0 56 50" fill="none" xmlns="http://www.w3.org/2000/svg">
<rect width="56" height="50" rx="6" fill="#D9D9D9"/>
<path fill-rule="evenodd" clip-rule="evenodd" d="M21.6481 15.347C22.0322 15.1203 22.47 15.0005 22.9161 15C23.3791 15 23.8121 15.126 24.1841 15.347C24.5561 15.154 24.9709 15.058 25.3899 15.068C25.8089 15.078 26.2186 15.1935 26.5811 15.404C27.1561 15.7386 27.5751 16.2873 27.7466 16.9301C27.9181 17.5729 27.828 18.2575 27.4961 18.834L26.9961 19.703C26.9721 19.745 26.9467 19.7863 26.9201 19.827C27.2696 20.1531 27.5355 20.5584 27.6955 21.0088C27.8554 21.4592 27.9047 21.9415 27.8391 22.415C27.6821 23.575 27.4001 25.495 27.0541 27.053L27.0001 27.05H24.0001C23.4481 27.05 23.0001 27.5 23.0001 28.054C23.0001 28.609 23.4481 29.059 24.0001 29.059H26.5181C25.9081 31.068 25.1001 33.191 24.9111 33.683C24.2351 35.438 21.7651 35.438 21.0891 33.683C20.8501 33.061 19.6231 29.839 19.0581 27.53C18.863 26.7066 18.6962 25.8768 18.5581 25.042H22.0001C22.5521 25.042 23.0001 24.592 23.0001 24.037C23.0001 23.482 22.5521 23.033 22.0001 23.033H18.2471L18.1611 22.415C18.0986 21.9651 18.1398 21.5068 18.2816 21.0752C18.4234 20.6437 18.6619 20.2502 18.9791 19.925C18.9277 19.8543 18.8797 19.7803 18.8351 19.703L18.3351 18.833C17.6451 17.633 18.0551 16.097 19.2501 15.403C19.6127 15.1925 20.0227 15.077 20.4419 15.0672C20.8611 15.0574 21.276 15.1537 21.6481 15.347ZM22.9161 19.017C22.9874 19.0173 23.058 19.0023 23.1231 18.973L23.8791 18.625L24.6581 18.919C24.7688 18.9597 24.8903 18.96 25.0012 18.9197C25.1121 18.8795 25.2052 18.8013 25.2641 18.699L25.7641 17.829C25.8305 17.7137 25.8485 17.5768 25.8142 17.4482C25.7799 17.3196 25.6961 17.2099 25.5811 17.143C25.5082 17.101 25.4259 17.0781 25.3418 17.0763C25.2578 17.0746 25.1746 17.0941 25.1001 17.133L24.1191 17.64L23.1691 17.077C23.0923 17.0323 23.0049 17.0088 22.9161 17.009C22.8275 17.009 22.7406 17.0324 22.6641 17.077L21.7131 17.64L20.7321 17.132C20.6573 17.0931 20.5739 17.0736 20.4896 17.0756C20.4054 17.0775 20.323 17.1007 20.2501 17.143C20.135 17.2099 20.0512 17.3196 20.0169 17.4482C19.9826 17.5768 20.0006 17.7137 20.0671 17.829L20.5671 18.699C20.6259 18.8015 20.7192 18.8798 20.8303 18.9201C20.9414 18.9604 21.0632 18.96 21.1741 18.919L21.9521 18.625L22.7091 18.973C22.7741 19.0023 22.8447 19.0173 22.9161 19.017ZM33.9141 22.939L33.9121 22.944L33.9001 22.972L33.8531 23.09C33.7985 23.2294 33.7485 23.3704 33.7031 23.513C33.5861 23.878 33.5001 24.261 33.5001 24.54C33.5001 24.82 33.5861 25.203 33.7021 25.568C33.7606 25.751 33.8267 25.9315 33.9001 26.109L33.9121 26.137L33.9141 26.142L32.0861 26.956L32.0851 26.953L32.0831 26.949L32.0771 26.935L31.9911 26.725C31.9206 26.5455 31.8559 26.3637 31.7971 26.18C31.6641 25.759 31.5001 25.137 31.5001 24.54C31.5001 23.944 31.6641 23.322 31.7971 22.901C31.8738 22.6615 31.9605 22.4253 32.0571 22.193L32.0771 22.146L32.0831 22.132L32.0851 22.128V22.125C32.1381 22.0047 32.2143 21.896 32.3094 21.8052C32.4044 21.7144 32.5165 21.6432 32.6391 21.5958C32.7617 21.5483 32.8925 21.5255 33.0239 21.5286C33.1553 21.5317 33.2848 21.5608 33.4051 21.614C33.9101 21.839 34.1381 22.432 33.9151 22.939" fill="black"/>
<path d="M35.0861 22.446C34.3791 23.156 34.3791 24.576 34.3791 24.576C34.3791 24.576 35.7931 24.576 36.5001 23.866C37.2071 23.156 37.2071 21.736 37.2071 21.736C37.2071 21.736 35.7931 21.736 35.0861 22.446Z" fill="black"/>
<path fill-rule="evenodd" clip-rule="evenodd" d="M38.0001 29.241C38.0001 32.03 35.6431 34.081 33.0001 34.081C30.3571 34.081 28.0001 32.03 28.0001 29.241V29.211C28.0001 28.57 27.9981 26.703 29.6881 25.68C30.7081 25.063 31.7681 25.116 32.6081 25.43C32.7434 25.4813 32.8741 25.5387 33.0001 25.602C33.1261 25.5387 33.2571 25.4813 33.3931 25.43C34.2321 25.116 35.2921 25.063 36.3111 25.68C38.0011 26.703 38.0011 28.57 38.0001 29.21V29.241ZM32.9591 30.358C32.7144 30.4436 32.5123 30.6203 32.3949 30.8514C32.2776 31.0824 32.2539 31.3499 32.329 31.5979C32.4042 31.8459 32.5722 32.0553 32.798 32.1824C33.0238 32.3096 33.2901 32.3445 33.5411 32.28H33.5441L33.5471 32.278L33.5581 32.275L33.5921 32.264L33.7021 32.226C33.7921 32.195 33.9171 32.148 34.0581 32.088C34.3201 31.977 34.7181 31.786 35.0431 31.512C35.3681 31.238 35.6241 30.878 35.7791 30.638C35.8693 30.4982 35.9537 30.3548 36.0321 30.208L36.0491 30.176L36.0541 30.166L36.0551 30.163L36.0571 30.16C36.1772 29.9225 36.1983 29.6471 36.1159 29.3941C36.0334 29.1411 35.854 28.9311 35.6171 28.81C35.3807 28.6904 35.1065 28.6694 34.8547 28.7517C34.603 28.834 34.3941 29.0129 34.2741 29.249L34.2671 29.264C34.2153 29.3602 34.1595 29.4543 34.1001 29.546C33.9771 29.737 33.8501 29.896 33.7581 29.974C33.6109 30.0836 33.4494 30.1724 33.2781 30.238C33.178 30.2808 33.0763 30.3195 32.9731 30.354L32.9591 30.358Z" fill="black"/>
</svg>
