<svg width="56" height="50" viewBox="0 0 56 50" fill="none" xmlns="http://www.w3.org/2000/svg">
<rect width="56" height="50" rx="6" fill="#D9D9D9"/>
<path d="M35.673 26V24.6667H41V26H35.673ZM37.6706 24V17.3333C37.6706 17.1444 37.6067 16.9862 37.4789 16.8587C37.351 16.7311 37.193 16.6671 37.0048 16.6667H34.3413V18.6667C34.3413 18.8556 34.2773 19.014 34.1495 19.142C34.0216 19.27 33.8636 19.3338 33.6754 19.3333H29.6801C29.436 19.3333 29.2473 19.2333 29.1141 19.0333C28.981 18.8333 28.9643 18.6222 29.0642 18.4L30.6457 14.8C30.7566 14.5556 30.9202 14.3611 31.1364 14.2167C31.3526 14.0722 31.5941 14 31.8609 14H33.0095C33.3757 14 33.6894 14.1307 33.9504 14.392C34.2114 14.6533 34.3417 14.9671 34.3413 15.3333H37.0048C37.5597 15.3333 38.0313 15.5278 38.4197 15.9167C38.8082 16.3056 39.0024 16.7778 39.0024 17.3333V24H37.6706Z" fill="black"/>
<path d="M17.7 24.8906V22.875C17.7 21.8438 18.51 21 19.5 21H28.5C29.49 21 30.3 21.8438 30.3 22.875V24.9C29.256 25.2844 28.5 26.3156 28.5 27.5344V29.4375H19.5V27.525C19.5 26.3156 18.744 25.275 17.7 24.8906ZM31.2 25.6875C30.21 25.6875 29.4 26.5312 29.4 27.5625V30.375H18.6V27.5625C18.6 27.0652 18.4104 26.5883 18.0728 26.2367C17.7352 25.885 17.2774 25.6875 16.8 25.6875C16.3226 25.6875 15.8648 25.885 15.5272 26.2367C15.1896 26.5883 15 27.0652 15 27.5625V32.25C15 33.2812 15.81 34.125 16.8 34.125V36H18.6V34.125H29.4V36H31.2V34.125C32.19 34.125 33 33.2812 33 32.25V27.5625C33 26.5312 32.19 25.6875 31.2 25.6875Z" fill="black"/>
</svg>
