<svg width="56" height="50" viewBox="0 0 56 50" fill="none" xmlns="http://www.w3.org/2000/svg">
<rect width="56" height="50" rx="6" fill="#D9D9D9"/>
<path d="M30.6053 16H22.2684L18.1 20.5V30.0625L18.65 30.625H20.1842L20.7053 28.9375H24.15L25.3947 30.625H30.6053V30.0625L32.6895 28.375L34.7737 28.9375L36.25 31.1875L38.45 30.0625L37.9 25H30.75L30.6053 22.1875V16Z" fill="black"/>
<path fill-rule="evenodd" clip-rule="evenodd" d="M22.2553 15C22.2654 15 22.2756 15 22.2857 15H33.7143C34.0299 15 34.2857 15.2634 34.2857 15.5882C34.2857 15.9131 34.0299 16.1765 33.7143 16.1765H32V18.5294H36C37.4709 18.5294 38.4771 19.667 39.0825 20.9134C39.6981 22.1808 40 23.7431 40 25V29.7059C40 31.2731 38.8268 32.003 37.895 32.3228C37.4158 32.4872 36.9447 32.5671 36.5988 32.6067C36.5765 32.6093 36.5546 32.6116 36.5332 32.6139C36.4615 33.1207 36.2821 33.6292 35.939 34.053C35.4542 34.6519 34.7088 35 33.7143 35C32.7197 35 31.9743 34.6519 31.4896 34.053C31.154 33.6385 30.975 33.1428 30.9002 32.6471H25.0998C25.025 33.1428 24.846 33.6385 24.5104 34.053C24.0257 34.6519 23.2803 35 22.2857 35C21.2912 35 20.5458 34.6519 20.061 34.053C19.7179 33.6292 19.5385 33.1207 19.4668 32.6139C19.4454 32.6116 19.4235 32.6093 19.4012 32.6067C19.0554 32.5671 18.5842 32.4872 18.105 32.3228C17.1732 32.003 16 31.2731 16 29.7059V21.4706C16 21.4601 16 21.4497 16 21.4392C15.9999 21.1714 15.9999 20.9037 16.0449 20.6485C16.0963 20.3577 16.2011 20.0996 16.3817 19.8208C16.6992 19.3306 17.3038 18.7083 18.3665 17.6144C18.395 17.585 18.4239 17.5553 18.4531 17.5252C18.4823 17.4952 18.5112 17.4655 18.5397 17.4361C19.6023 16.3421 20.2068 15.7197 20.683 15.3929C20.9539 15.207 21.2046 15.0991 21.4871 15.0463C21.5864 15.0277 21.6878 15.0165 21.7903 15.0099L21.7993 15H22.1944C22.2147 15 22.235 15 22.2553 15ZM19.4609 30.2941L20.0023 28.5294H24.2847L25.578 30.2941H30.1353V30.0095L32.7416 27.8856L35.3919 28.6055L36.7657 30.7129L38.2452 29.9514L37.7743 25.5882H30.315L30.1353 22.0743V16.1765H22.2909L18.2857 20.5285V30.0505L18.5224 30.2941H19.4609ZM33.7143 24.4118H38.8332C38.7567 23.4379 38.4968 22.3382 38.0603 21.4395C37.5229 20.3331 36.8148 19.7059 36 19.7059H32V22.6471C32 23.1479 32.1227 23.5857 32.3676 23.8881C32.5971 24.1717 32.9946 24.4118 33.7143 24.4118ZM33.0255 29.1794L33.0028 29.1733L32.9855 29.1873C32.9988 29.1846 33.0121 29.182 33.0255 29.1794ZM20.939 30.8178C20.6942 31.1202 20.5714 31.558 20.5714 32.0588C20.5714 32.5597 20.6942 32.9975 20.939 33.2999C21.1685 33.5834 21.566 33.8235 22.2857 33.8235C23.0054 33.8235 23.4029 33.5834 23.6325 33.2999C23.8773 32.9975 24 32.5597 24 32.0588C24 31.558 23.8773 31.1202 23.6325 30.8178C23.4029 30.5342 23.0054 30.2941 22.2857 30.2941C21.566 30.2941 21.1685 30.5342 20.939 30.8178ZM32.3676 30.8178C32.1227 31.1202 32 31.558 32 32.0588C32 32.5597 32.1227 32.9975 32.3676 33.2999C32.5971 33.5834 32.9946 33.8235 33.7143 33.8235C34.434 33.8235 34.8315 33.5834 35.061 33.2999C35.3058 32.9975 35.4286 32.5597 35.4286 32.0588C35.4286 31.558 35.3058 31.1202 35.061 30.8178C34.8315 30.5342 34.434 30.2941 33.7143 30.2941C32.9946 30.2941 32.5971 30.5342 32.3676 30.8178Z" fill="black"/>
<path fill-rule="evenodd" clip-rule="evenodd" d="M27.4 21C27.7314 21 28 21.2798 28 21.625V25.375C28 25.7202 27.7314 26 27.4 26C27.0686 26 26.8 25.7202 26.8 25.375V21.625C26.8 21.2798 27.0686 21 27.4 21ZM22.6 22.25C22.9314 22.25 23.2 22.5298 23.2 22.875V25.375C23.2 25.7202 22.9314 26 22.6 26C22.2686 26 22 25.7202 22 25.375V22.875C22 22.5298 22.2686 22.25 22.6 22.25Z" fill="white"/>
</svg>
