<svg width="56" height="50" viewBox="0 0 56 50" fill="none" xmlns="http://www.w3.org/2000/svg">
<rect width="56" height="50" rx="6" fill="#D9D9D9"/>
<path d="M26.6323 20.1535C25.4758 19.615 24.5731 18.6455 24.1154 17.4503C24.0605 17.2885 24.1223 17.2356 24.3276 17.2034C24.6907 17.1609 25.0586 17.2034 25.4025 17.3276C25.5904 17.3859 25.7749 17.4545 25.9552 17.5331C26.112 17.6052 26.2829 17.6407 26.4553 17.6372C26.6277 17.6336 26.797 17.5909 26.9507 17.5124C27.2118 17.3882 27.466 17.2555 27.7362 17.1443C27.945 17.051 28.1707 17.0019 28.3993 17.0001C28.6278 16.9982 28.8542 17.0437 29.0645 17.1336C29.8782 17.4855 30.785 17.5567 31.6433 17.336C31.8584 17.2868 32.0764 17.2509 32.296 17.2287C32.6899 17.1888 32.8006 17.2931 32.6739 17.5661C32.2146 18.5637 31.4768 19.4058 30.5501 19.9902C30.4928 20.027 30.4463 20.073 30.3386 20.1589C30.4213 20.1943 30.5019 20.2345 30.5799 20.2793C32.4653 21.4676 34.0382 23.0945 35.1656 25.0224C35.5907 25.839 35.8387 26.7368 35.8931 27.6567C35.9606 28.5037 35.9963 29.353 36 30.2027C36.0022 30.9007 35.83 31.5881 35.4992 32.2019C34.9366 33.2487 33.8587 33.7855 32.4135 33.9519C32.0893 33.9837 31.7637 33.998 31.4379 33.9949C29.3935 33.9987 27.3492 34.0049 25.3048 33.9934C24.286 34.0331 23.2795 33.7585 22.4207 33.2065C21.8017 32.768 21.3687 32.1124 21.2069 31.3691C20.9848 30.378 20.9411 29.355 21.0779 28.3484C21.1251 27.6782 21.2162 27.0119 21.3504 26.3537C21.7478 24.963 22.5085 23.7045 23.5536 22.7088C24.4564 21.7577 25.4686 20.918 26.569 20.2072C26.591 20.1905 26.6122 20.1726 26.6323 20.1535ZM28.6431 23.9634C28.9676 22.7654 29.0798 21.5194 28.9744 20.2824C28.9668 20.1589 28.8866 20.1175 28.7271 20.1236C28.5215 20.1394 28.315 20.1384 28.1095 20.1206C27.8454 20.0786 27.5751 20.1036 27.3231 20.1933C27.0711 20.283 26.8455 20.4347 26.6667 20.6344C25.1917 22.0102 24.2783 23.8876 24.104 25.9021C24.0811 26.1398 24.1009 26.3806 24.1009 26.672C24.1269 26.5884 24.1391 26.5539 24.1475 26.5186C24.4479 25.3297 24.9138 24.1894 25.5315 23.1313C26.1287 22.0566 26.9653 21.1354 27.9759 20.4396C28.0416 20.3959 28.1133 20.3575 28.1836 20.3169L28.2752 20.3345L28.6431 23.9634ZM29.0439 20.1497C32.1372 22.8031 33.3418 26.0063 33.99 29.3798C34.0013 29.2457 34.0039 29.1109 33.9976 28.9765C33.948 28.3016 33.9251 27.6252 33.8342 26.9534C33.6259 25.3356 33.0313 23.7923 32.1013 22.4549C31.552 21.6669 30.8791 20.9736 30.1088 20.402C29.9631 20.2797 29.7909 20.1932 29.6061 20.1494C29.4212 20.1056 29.2287 20.1057 29.0439 20.1497Z" fill="black"/>
</svg>
