<svg width="56" height="50" viewBox="0 0 56 50" fill="none" xmlns="http://www.w3.org/2000/svg">
<rect width="56" height="50" rx="6" fill="#D9D9D9"/>
<path d="M23.0044 15C23.6965 17.7312 24.8186 19.3171 25.4634 20.0442L25.515 20.1005L25.5838 20.1394C26.2888 20.4857 26.7359 21.2085 26.7359 22.0006C26.7359 23.152 25.8159 24.0782 24.6681 24.0782C23.5246 24.0782 22.6046 23.152 22.6046 22.0006C22.6046 21.6284 22.7035 21.2691 22.8883 20.9445L23.013 20.7281L22.8754 20.516C22.0973 19.343 22.0285 18.2913 22.2478 17.1945C22.3897 16.476 22.6863 15.7401 23.0044 15ZM28.2061 19.962C28.5329 19.9663 28.8467 20.0183 29.1046 20.1351C29.2766 20.4857 29.3711 20.9445 29.5603 21.3947C29.6678 21.637 29.8139 21.8881 30.059 22.0699C30.2911 22.243 30.5963 22.3339 30.936 22.3296C33.3649 22.7754 34.9039 23.4723 35.9356 24.2946C36.976 25.1127 37.5263 26.0649 37.9519 27.0994V27.1037C38.0249 27.2725 38.0077 27.3807 37.9476 27.5019C37.8831 27.6318 37.7498 27.7616 37.5864 27.8525C37.4188 27.9434 37.221 27.9867 37.0663 27.9824C36.9158 27.9737 36.8169 27.9261 36.7481 27.8482C36.2237 27.2033 35.5874 26.3203 34.7921 25.6104C33.9925 24.9006 32.9909 24.3509 31.8044 24.4894C30.893 24.5933 30.3814 24.2124 29.6377 23.7622C29.0573 23.4117 28.3437 23.0437 27.3635 23.0005C27.4796 22.6888 27.5441 22.3512 27.5441 22.0006C27.5441 21.2951 27.2862 20.6329 26.8477 20.1178C27.0884 20.0745 27.3506 20.0183 27.6258 19.988C27.7719 19.975 27.9181 19.962 28.0643 19.962H28.2061ZM18 20.7065C19.1822 21.1003 20.4332 21.4509 21.8738 21.347C21.8265 21.5591 21.7964 21.7799 21.7964 22.0006C21.7964 22.6672 22.0285 23.2861 22.4069 23.7796C21.1683 23.7709 20.3128 23.3294 19.5648 22.6455C18.9931 22.1175 18.4944 21.425 18 20.7065ZM24.6681 20.8709C24.0534 20.8709 23.5461 21.3817 23.5461 22.0006C23.5461 22.6196 24.0534 23.1303 24.6681 23.1303C25.2828 23.1303 25.7901 22.6196 25.7901 22.0006C25.7901 21.3817 25.2828 20.8709 24.6681 20.8709ZM24.6681 21.6847C24.8487 21.6847 24.9862 21.8188 24.9862 22.0006C24.9862 22.1781 24.8487 22.3166 24.6681 22.3166C24.4918 22.3166 24.3543 22.1781 24.3543 22.0006C24.3543 21.8188 24.4918 21.6847 24.6681 21.6847ZM25.7772 24.6712C26.0481 26.9479 26.9336 28.4498 27.9783 29.5968C29.1304 30.8607 30.433 31.748 31.3616 32.9426C31.4132 33.0855 31.4475 33.3798 31.4132 33.6914C31.3702 34.0247 31.2627 34.3839 31.1165 34.635C30.9704 34.8774 30.8199 34.9856 30.6823 34.9986C30.5534 35.0116 30.3126 34.9423 29.9515 34.5441C29.1777 33.1028 27.643 30.8737 25.6139 29.8955C24.81 29.5059 24.4274 28.9562 24.2253 28.294C24.0276 27.6361 24.0319 26.857 24.1006 26.1255C24.1522 25.5239 24.0362 25.0954 23.8986 24.7837C24.1436 24.8573 24.4016 24.8919 24.6681 24.8919C25.0593 24.8919 25.4376 24.8097 25.7772 24.6712Z" fill="black"/>
</svg>
