<svg width="56" height="50" viewBox="0 0 56 50" fill="none" xmlns="http://www.w3.org/2000/svg">
<rect width="56" height="50" rx="6" fill="#D9D9D9"/>
<path d="M33.8976 15.3452C33.842 15.2409 33.7595 15.1537 33.6587 15.093C33.558 15.0322 33.4429 15.0001 33.3256 15H23.6731C23.5558 15.0001 23.4407 15.0322 23.34 15.093C23.2392 15.1537 23.1567 15.2409 23.1011 15.3452C22.3809 16.6997 22 18.2812 22 19.9219C22 22.0836 22.6578 24.1219 23.8512 25.6627C24.7742 26.8532 25.9325 27.642 27.2 27.9636V34.6875H25.25C25.0776 34.6875 24.9123 34.7566 24.7904 34.8797C24.6685 35.0028 24.6 35.1697 24.6 35.3438C24.6 35.5178 24.6685 35.6847 24.7904 35.8078C24.9123 35.9309 25.0776 36 25.25 36H31.75C31.9224 36 32.0877 35.9309 32.2096 35.8078C32.3315 35.6847 32.4 35.5178 32.4 35.3438C32.4 35.1697 32.3315 35.0028 32.2096 34.8797C32.0877 34.7566 31.9224 34.6875 31.75 34.6875H29.8V27.9636C31.0675 27.6433 32.2258 26.8532 33.1488 25.6627C34.3422 24.1219 35 22.0836 35 19.9219C35 18.2826 34.6178 16.6997 33.8976 15.3452ZM24.0722 16.3125H32.9239C33.488 17.5441 33.751 18.8944 33.6909 20.25H23.3026C23.2425 18.8944 23.5055 17.5441 24.0696 16.3125H24.0722Z" fill="black"/>
</svg>
