<svg width="56" height="50" viewBox="0 0 56 50" fill="none" xmlns="http://www.w3.org/2000/svg">
<rect width="56" height="50" rx="6" fill="#D9D9D9"/>
<path d="M19.4286 15H26.5714C26.9503 15 27.3137 15.2107 27.5816 15.5858C27.8495 15.9609 28 16.4696 28 17V22H18V17C18 16.4696 18.1505 15.9609 18.4184 15.5858C18.6863 15.2107 19.0497 15 19.4286 15ZM28 32C28 32.5304 27.8495 33.0391 27.5816 33.4142C27.3137 33.7893 26.9503 34 26.5714 34V35H25.1429V34H20.8571V35H19.4286V34C19.0497 34 18.6863 33.7893 18.4184 33.4142C18.1505 33.0391 18 32.5304 18 32V23H28V32ZM20.1429 18V20H20.7273V18H20.1429ZM20.1429 25V28H20.7273V25H20.1429Z" fill="black"/>
<path fill-rule="evenodd" clip-rule="evenodd" d="M29 23.5556C29 23.4082 29.0585 23.2669 29.1627 23.1627C29.2669 23.0585 29.4082 23 29.5556 23H33.4444C33.5918 23 33.7331 23.0585 33.8373 23.1627C33.9415 23.2669 34 23.4082 34 23.5556V26.6111C34 26.7585 33.9415 26.8998 33.8373 27.0039C33.7331 27.1081 33.5918 27.1667 33.4444 27.1667H32.3333V27.4444H32.6111C32.6848 27.4444 32.7554 27.4737 32.8075 27.5258C32.8596 27.5779 32.8889 27.6486 32.8889 27.7222C32.8889 27.7959 32.8596 27.8665 32.8075 27.9186C32.7554 27.9707 32.6848 28 32.6111 28H30.3889C30.3152 28 30.2446 27.9707 30.1925 27.9186C30.1404 27.8665 30.1111 27.7959 30.1111 27.7222C30.1111 27.6486 30.1404 27.5779 30.1925 27.5258C30.2446 27.4737 30.3152 27.4444 30.3889 27.4444H30.6667V27.1667H29.5556C29.4082 27.1667 29.2669 27.1081 29.1627 27.0039C29.0585 26.8998 29 26.7585 29 26.6111V23.5556ZM31.7778 27.4444V27.1667H31.2222V27.4444H31.7778Z" fill="black"/>
<path d="M29.8182 35C29.5909 35 29.3977 34.9167 29.2386 34.75C29.0795 34.5833 29 34.3809 29 34.1429C29 33.9048 29.0795 33.7024 29.2386 33.5357C29.3977 33.369 29.5909 33.2857 29.8182 33.2857C30.0455 33.2857 30.2386 33.369 30.3977 33.5357C30.5568 33.7024 30.6364 33.9048 30.6364 34.1429C30.6364 34.3809 30.5568 34.5833 30.3977 34.75C30.2386 34.9167 30.0455 35 29.8182 35ZM29.8182 34.4286C29.8955 34.4286 29.9603 34.4011 30.0126 34.3463C30.065 34.2914 30.0911 34.2236 30.0909 34.1429C30.0907 34.0621 30.0645 33.9943 30.0124 33.9394C29.9602 33.8846 29.8955 33.8571 29.8182 33.8571C29.7409 33.8571 29.6762 33.8846 29.624 33.9394C29.5718 33.9943 29.5456 34.0621 29.5455 34.1429C29.5453 34.2236 29.5715 34.2915 29.624 34.3466C29.6765 34.4016 29.7413 34.4289 29.8182 34.4286ZM31.2841 35C31.2023 35 31.1409 34.9619 31.1 34.8857C31.0591 34.8095 31.0568 34.7309 31.0932 34.65C31.125 34.569 31.1477 34.4857 31.1614 34.4C31.175 34.3143 31.1818 34.2286 31.1818 34.1429C31.1818 33.7476 31.0488 33.4108 30.7828 33.1323C30.5168 32.8538 30.1953 32.7145 29.8182 32.7143C29.7818 32.7143 29.7443 32.7155 29.7055 32.718C29.6668 32.7205 29.6294 32.7264 29.5932 32.7357C29.5114 32.75 29.4375 32.7309 29.3717 32.6786C29.3059 32.6262 29.2729 32.5595 29.2727 32.4786V31.8571C29.2727 31.7 29.3262 31.5655 29.4331 31.4537C29.54 31.3419 29.6684 31.2859 29.8182 31.2857H30.0909V30.3143C30.0909 29.9476 30.2125 29.637 30.4558 29.3823C30.6991 29.1276 30.9956 29.0002 31.3455 29C31.6 29 31.8318 29.0727 32.0409 29.218C32.25 29.3633 32.4045 29.5573 32.5045 29.8L34.3659 34.4286H34.7273C34.8045 34.4286 34.8694 34.456 34.9217 34.5109C34.9741 34.5657 35.0002 34.6335 35 34.7143C34.9998 34.795 34.9736 34.8629 34.9215 34.918C34.8693 34.973 34.8045 35.0004 34.7273 35H33.3636C33.2864 35 33.2216 34.9726 33.1695 34.9177C33.1173 34.8629 33.0911 34.795 33.0909 34.7143C33.0907 34.6335 33.1169 34.5657 33.1695 34.5109C33.222 34.456 33.2867 34.4286 33.3636 34.4286H33.7727L32.0068 30.0286C31.9523 29.8905 31.8648 29.7798 31.7445 29.6966C31.6241 29.6133 31.4911 29.5716 31.3455 29.5714C31.15 29.5714 30.983 29.6441 30.8445 29.7894C30.7059 29.9348 30.6365 30.1097 30.6364 30.3143V31.2857H31.1818C31.4818 31.2857 31.7386 31.3976 31.9523 31.6214C32.1659 31.8452 32.2727 32.1143 32.2727 32.4286V34.4286C32.2727 34.5857 32.2194 34.7203 32.1126 34.8323C32.0059 34.9443 31.8775 35.0002 31.7273 35H31.2841Z" fill="black"/>
<path d="M37.55 23H35.45C35.3307 23 35.2162 23.0494 35.1318 23.1373C35.0474 23.2252 35 23.3444 35 23.4688V27.5312C35 27.6556 35.0474 27.7748 35.1318 27.8627C35.2162 27.9506 35.3307 28 35.45 28H37.55C37.6693 28 37.7838 27.9506 37.8682 27.8627C37.9526 27.7748 38 27.6556 38 27.5312V23.4688C38 23.3444 37.9526 23.2252 37.8682 23.1373C37.7838 23.0494 37.6693 23 37.55 23ZM36.5 27.6875C36.4607 27.6875 36.4217 27.6794 36.3854 27.6637C36.349 27.648 36.316 27.6249 36.2882 27.5959C36.2321 27.5374 36.2005 27.458 36.2006 27.3752C36.2006 27.3342 36.2084 27.2936 36.2235 27.2558C36.2386 27.2179 36.2607 27.1836 36.2885 27.1546C36.3447 27.0961 36.4209 27.0633 36.5004 27.0633C36.5799 27.0634 36.656 27.0963 36.7122 27.1549C36.7683 27.2135 36.7999 27.2929 36.7998 27.3756C36.7997 27.4584 36.7681 27.5378 36.7119 27.5962C36.6557 27.6547 36.5795 27.6876 36.5 27.6875Z" fill="black"/>
<path d="M31.0192 19.1731C31.0188 18.8086 31.1528 18.4568 31.3955 18.1849C31.6383 17.913 31.9728 17.7403 32.335 17.6997C32.6972 17.6591 33.0617 17.7535 33.3587 17.9648C33.6556 18.1762 33.8642 18.4896 33.9444 18.8452C33.8733 18.9195 33.7928 18.9932 33.6617 19.0498C33.4749 19.1305 33.1666 19.1785 32.6349 19.0455C32.0415 18.8974 31.6414 18.9854 31.362 19.1588C31.2448 19.2327 31.1397 19.3242 31.0505 19.4302L31.0429 19.4385C31.0271 19.3509 31.0191 19.2621 31.0192 19.1731ZM30.2115 15C29.8902 15 29.5821 15.1276 29.3549 15.3549C29.1276 15.5821 29 15.8902 29 16.2115V20.7885C29 21.1098 29.1276 21.4179 29.3549 21.6451C29.5821 21.8724 29.8902 22 30.2115 22H34.7885C35.1098 22 35.4179 21.8724 35.6451 21.6451C35.8724 21.4179 36 21.1098 36 20.7885V16.2115C36 15.8902 35.8724 15.5821 35.6451 15.3549C35.4179 15.1276 35.1098 15 34.7885 15H30.2115ZM32.5 17.1538C33.0355 17.1538 33.5491 17.3666 33.9278 17.7453C34.3065 18.1239 34.5192 18.6375 34.5192 19.1731C34.5192 19.7086 34.3065 20.2222 33.9278 20.6009C33.5491 20.9796 33.0355 21.1923 32.5 21.1923C31.9645 21.1923 31.4509 20.9796 31.0722 20.6009C30.6935 20.2222 30.4808 19.7086 30.4808 19.1731C30.4808 18.6375 30.6935 18.1239 31.0722 17.7453C31.4509 17.3666 31.9645 17.1538 32.5 17.1538ZM31.2885 16.3462C31.2885 16.4533 31.2459 16.556 31.1702 16.6317C31.0944 16.7075 30.9917 16.75 30.8846 16.75C30.7775 16.75 30.6748 16.7075 30.5991 16.6317C30.5233 16.556 30.4808 16.4533 30.4808 16.3462C30.4808 16.239 30.5233 16.1363 30.5991 16.0606C30.6748 15.9849 30.7775 15.9423 30.8846 15.9423C30.9917 15.9423 31.0944 15.9849 31.1702 16.0606C31.2459 16.1363 31.2885 16.239 31.2885 16.3462ZM32.7692 16.0769H34.1154C34.1868 16.0769 34.2553 16.1053 34.3058 16.1558C34.3563 16.2063 34.3846 16.2747 34.3846 16.3462C34.3846 16.4176 34.3563 16.486 34.3058 16.5365C34.2553 16.587 34.1868 16.6154 34.1154 16.6154H32.7692C32.6978 16.6154 32.6293 16.587 32.5789 16.5365C32.5284 16.486 32.5 16.4176 32.5 16.3462C32.5 16.2747 32.5284 16.2063 32.5789 16.1558C32.6293 16.1053 32.6978 16.0769 32.7692 16.0769Z" fill="black"/>
</svg>
