<svg width="56" height="50" viewBox="0 0 56 50" fill="none" xmlns="http://www.w3.org/2000/svg">
<rect width="56" height="50" rx="6" fill="#D9D9D9"/>
<path d="M37 20.6928H36.9203C36.8494 20.4813 36.731 20.2884 36.5738 20.1284C36.4167 19.9683 36.2249 19.8454 36.0128 19.7687L28.5128 17.0887C28.1815 16.9704 27.8185 16.9704 27.4872 17.0887L19.9872 19.777C19.7751 19.8537 19.5833 19.9767 19.4262 20.1367C19.269 20.2967 19.1506 20.4896 19.0797 20.7011H19C18.2058 20.7011 17.444 21.0115 16.8817 21.5643C16.3193 22.117 16.0022 22.8671 16 23.6499V25.8678C16 26.6521 16.3161 27.4042 16.8787 27.9588C17.4413 28.5134 18.2044 28.8249 19 28.8249H19.4866C20.1606 30.285 21.5294 31.5446 23.5394 32.5362C24.9128 33.2001 26.3668 33.688 27.8659 33.9879C27.9546 34.004 28.0454 34.004 28.1341 33.9879C29.6332 33.688 31.0872 33.2001 32.4606 32.5362C34.4706 31.5446 35.8356 30.285 36.5134 28.8249H37C37.7956 28.8249 38.5587 28.5134 39.1213 27.9588C39.6839 27.4042 40 26.6521 40 25.8678V23.6499C40 22.8656 39.6839 22.1135 39.1213 21.5589C38.5587 21.0043 37.7956 20.6928 37 20.6928ZM19 27.3464C18.6022 27.3464 18.2206 27.1906 17.9393 26.9133C17.658 26.636 17.5 26.2599 17.5 25.8678V23.6499C17.5 23.2578 17.658 22.8817 17.9393 22.6044C18.2206 22.3271 18.6022 22.1713 19 22.1713V26.6071C19.0002 26.8544 19.0174 27.1014 19.0516 27.3464H19ZM31.75 27.3464H24.25C24.0511 27.3464 23.8603 27.2685 23.7197 27.1298C23.579 26.9912 23.5 26.8031 23.5 26.6071C23.5 26.411 23.579 26.223 23.7197 26.0843C23.8603 25.9457 24.0511 25.8678 24.25 25.8678H31.75C31.9489 25.8678 32.1397 25.9457 32.2803 26.0843C32.421 26.223 32.5 26.411 32.5 26.6071C32.5 26.8031 32.421 26.9912 32.2803 27.1298C32.1397 27.2685 31.9489 27.3464 31.75 27.3464ZM31.75 24.3892H24.25C24.0511 24.3892 23.8603 24.3113 23.7197 24.1727C23.579 24.034 23.5 23.846 23.5 23.6499C23.5 23.4538 23.579 23.2658 23.7197 23.1272C23.8603 22.9885 24.0511 22.9106 24.25 22.9106H31.75C31.9489 22.9106 32.1397 22.9885 32.2803 23.1272C32.421 23.2658 32.5 23.4538 32.5 23.6499C32.5 23.846 32.421 24.034 32.2803 24.1727C32.1397 24.3113 31.9489 24.3892 31.75 24.3892ZM38.5 25.8678C38.5 26.2599 38.342 26.636 38.0607 26.9133C37.7794 27.1906 37.3978 27.3464 37 27.3464H36.9484C36.9826 27.1014 36.9998 26.8544 37 26.6071V22.1713C37.3978 22.1713 37.7794 22.3271 38.0607 22.6044C38.342 22.8817 38.5 23.2578 38.5 23.6499V25.8678Z" fill="black"/>
</svg>
