<svg width="56" height="50" viewBox="0 0 56 50" fill="none" xmlns="http://www.w3.org/2000/svg">
<rect width="56" height="50" rx="6" fill="#D9D9D9"/>
<path d="M37.24 19.4771L29.2015 15.1769C28.9868 15.0609 28.7454 15 28.5 15C28.2546 15 28.0132 15.0609 27.7985 15.1769L19.76 19.4789C19.5304 19.6017 19.3388 19.7825 19.2051 20.0025C19.0714 20.2224 19.0006 20.4734 19 20.7292V29.2708C19.0006 29.5266 19.0714 29.7776 19.2051 29.9975C19.3388 30.2175 19.5304 30.3983 19.76 30.5211L27.7985 34.8231C28.0132 34.9391 28.2546 35 28.5 35C28.7454 35 28.9868 34.9391 29.2015 34.8231L37.24 30.5211C37.4696 30.3983 37.6612 30.2175 37.7949 29.9975C37.9286 29.7776 37.9994 29.5266 38 29.2708V20.7301C37.9999 20.4738 37.9293 20.2223 37.7956 20.0018C37.6619 19.7814 37.47 19.6001 37.24 19.4771ZM28.5 16.4272L35.8397 20.3568L33.1194 21.8117L25.7797 17.8821L28.5 16.4272ZM28.5 24.2864L21.1603 20.3568L24.2579 18.6983L31.5975 22.6279L28.5 24.2864ZM36.5385 29.2743L29.2308 33.1852V25.5216L32.1538 23.9578V27.1443C32.1538 27.3338 32.2308 27.5155 32.3679 27.6495C32.5049 27.7835 32.6908 27.8588 32.8846 27.8588C33.0784 27.8588 33.2643 27.7835 33.4013 27.6495C33.5384 27.5155 33.6154 27.3338 33.6154 27.1443V23.1754L36.5385 21.6116V29.2708V29.2743Z" fill="black"/>
</svg>
