<svg width="56" height="50" viewBox="0 0 56 50" fill="none" xmlns="http://www.w3.org/2000/svg">
<rect width="56" height="50" rx="6" fill="#D9D9D9"/>
<path fill-rule="evenodd" clip-rule="evenodd" d="M34.1071 15C34.8881 15 35.6641 15.47 35.9321 16.305L36.0081 16.551L36.0871 16.831L36.1671 17.147L36.2441 17.493L36.3171 17.869L36.3511 18.067L36.4121 18.484C36.6421 20.274 36.5691 22.714 35.2901 25.189L35.1311 25.486C33.7891 27.901 33.8861 30.332 34.1891 31.911L34.2631 32.26L34.3011 32.422L34.3781 32.722L34.4551 32.984C34.7291 33.874 34.1371 34.906 33.1281 34.994L32.9881 35H21.4071C20.6271 35 19.8501 34.53 19.5821 33.695L19.5071 33.449L19.4271 33.169L19.3471 32.853L19.2701 32.507L19.1971 32.131C19.1731 32.001 19.1511 31.8667 19.1311 31.728L19.0761 31.298L19.0341 30.844C18.9071 29.14 19.0991 26.989 20.2241 24.811L20.3831 24.514C21.7251 22.1 21.6271 19.668 21.3251 18.09L21.2521 17.741L21.2131 17.579L21.1361 17.279L21.0591 17.017C20.7851 16.127 21.3771 15.095 22.3861 15.007L22.5271 15H34.1071ZM27.7571 25H24.7571C24.4919 25 24.2375 25.1054 24.05 25.2929C23.8625 25.4804 23.7571 25.7348 23.7571 26C23.7571 26.2652 23.8625 26.5196 24.05 26.7071C24.2375 26.8946 24.4919 27 24.7571 27H27.7571C28.0223 27 28.2767 26.8946 28.4642 26.7071C28.6517 26.5196 28.7571 26.2652 28.7571 26C28.7571 25.7348 28.6517 25.4804 28.4642 25.2929C28.2767 25.1054 28.0223 25 27.7571 25ZM31.7571 21H25.7571C25.5022 21.0003 25.2571 21.0979 25.0717 21.2728C24.8864 21.4478 24.7749 21.687 24.7599 21.9414C24.745 22.1958 24.8278 22.4464 24.9914 22.6418C25.155 22.8373 25.387 22.9629 25.6401 22.993L25.7571 23H31.7571C32.012 22.9997 32.2571 22.9021 32.4425 22.7272C32.6278 22.5522 32.7393 22.313 32.7543 22.0586C32.7692 21.8042 32.6864 21.5536 32.5228 21.3582C32.3592 21.1627 32.1272 21.0371 31.8741 21.007L31.7571 21Z" fill="black"/>
</svg>
