<svg width="56" height="50" viewBox="0 0 56 50" fill="none" xmlns="http://www.w3.org/2000/svg">
<rect width="56" height="50" rx="6" fill="#D9D9D9"/>
<path d="M28.0222 13C27.5778 13.0001 27.1335 13.0034 26.6892 13.01C26.1192 13.019 25.8132 13.28 25.7912 13.706C25.7632 14.23 25.7852 14.754 25.7852 15.319H30.2182C30.2182 14.737 30.2432 14.182 30.2082 13.628C30.1842 13.237 29.8562 13.018 29.3532 13.011C28.9092 13.0037 28.4655 13 28.0222 13ZM26.3362 15.72C26.5562 16.263 26.1842 16.538 25.7342 16.802C25.4453 16.972 25.1743 17.1707 24.9252 17.395C23.4302 18.76 22.7062 20.29 23.2722 22.091C23.3732 22.413 23.5682 22.545 24.0422 22.54C26.4822 22.516 28.9222 22.528 31.3622 22.528C32.6692 22.528 32.7852 22.448 32.9382 21.431C32.9497 21.3358 32.9544 21.2399 32.9522 21.144C32.9309 20.2964 32.6961 19.4679 32.2696 18.7352C31.8431 18.0024 31.2387 17.3891 30.5122 16.952C30.0412 16.622 29.3782 16.375 29.6222 15.72H26.3362ZM26.5462 17.21C26.5868 17.2082 26.6276 17.2089 26.6682 17.212C26.0509 17.8211 25.4962 18.4904 25.0122 19.21C24.7048 19.943 24.4859 20.7101 24.3602 21.495C23.7102 20.045 25.2862 17.272 26.5462 17.21ZM23.6602 22.864V30.882H32.3862V22.864H23.6602ZM24.7442 23.702L24.9532 23.706C24.9981 23.845 25.0276 23.9885 25.0412 24.134C25.0472 25.922 25.0442 27.711 25.0432 29.499C25.0537 29.5944 25.0469 29.691 25.0232 29.784C25.0002 29.846 24.9072 29.891 24.8452 29.944C24.7782 29.896 24.6712 29.856 24.6522 29.798C24.6285 29.6883 24.6218 29.5757 24.6322 29.464C24.6322 27.707 24.6292 25.951 24.6362 24.194C24.6548 24.0267 24.691 23.8618 24.7442 23.702ZM32.1212 31.255C30.7592 31.28 29.3942 31.265 28.0312 31.265H24.2512C23.3092 31.265 23.0542 31.42 23.0272 32.163C22.9909 33.2167 22.9909 34.2713 23.0272 35.325C23.0462 35.876 23.4792 36.272 24.1562 36.394C24.7932 36.508 25.5122 36.674 25.9882 36.084C26.1942 35.83 26.4322 35.847 26.6882 36.061C27.1222 36.427 28.4582 36.717 28.8482 36.397C29.4982 35.864 29.8102 36.003 30.5152 36.386C30.7469 36.4963 30.9996 36.5557 31.2562 36.5602C31.5128 36.5647 31.7674 36.5142 32.0028 36.4121C32.2383 36.3099 32.4491 36.1586 32.6211 35.9681C32.7932 35.7777 32.9224 35.5526 33.0002 35.308C33.0525 34.2556 33.0512 33.2012 32.9962 32.149C32.9676 31.9729 32.913 31.802 32.8342 31.642C32.7342 31.361 32.5322 31.247 32.1212 31.255ZM24.2672 32.134C24.3452 32.229 24.4832 32.321 24.4872 32.419C24.5122 32.865 24.5002 33.313 24.5002 33.761C24.5002 34.192 24.5102 34.625 24.4902 35.056C24.4862 35.144 24.3652 35.229 24.2982 35.316C24.2112 35.229 24.0482 35.143 24.0472 35.056C24.0287 34.1778 24.028 33.2993 24.0452 32.421C24.0462 32.325 24.1902 32.229 24.2672 32.134Z" fill="black"/>
</svg>
