<svg width="56" height="50" viewBox="0 0 56 50" fill="none" xmlns="http://www.w3.org/2000/svg">
<rect width="56" height="50" rx="6" fill="#D9D9D9"/>
<path d="M32.8846 25.5C32.8846 27.5178 32.2306 29.1538 31.4231 29.1538C30.6156 29.1538 29.9615 27.5178 29.9615 25.5C29.9615 23.4822 30.6156 21.8462 31.4231 21.8462C32.2306 21.8462 32.8846 23.4822 32.8846 25.5ZM38 34.2692C38 34.463 37.923 34.6489 37.786 34.786C37.6489 34.923 37.463 35 37.2692 35H24.4808C21.4079 35 19 30.8273 19 25.5C19 20.1727 21.4079 16 24.4808 16H31.0577C34.1306 16 36.5385 20.1727 36.5385 25.5C36.5385 28.9227 35.5446 31.8696 34.0182 33.5385H37.2692C37.463 33.5385 37.6489 33.6155 37.786 33.7525C37.923 33.8895 38 34.0754 38 34.2692ZM21.3631 24.0211C21.5152 24.0213 21.6635 23.9737 21.787 23.885L23.3846 22.7441L24.5977 23.611C24.7555 23.7135 24.9467 23.7512 25.1316 23.7163C25.3165 23.6814 25.4808 23.5765 25.5903 23.4234C25.6997 23.2704 25.746 23.081 25.7193 22.8947C25.6927 22.7085 25.5952 22.5397 25.4472 22.4235L23.8094 21.2515C23.6854 21.163 23.5369 21.1154 23.3846 21.1154C23.2323 21.1154 23.0838 21.163 22.9599 21.2515L20.9375 22.6957C20.8114 22.7857 20.7172 22.9135 20.6685 23.0605C20.6198 23.2076 20.619 23.3663 20.6664 23.5138C20.7138 23.6613 20.8068 23.7899 20.932 23.8811C21.0573 23.9723 21.2082 24.0213 21.3631 24.0211ZM25.6262 28.3957L23.8094 27.0976C23.6854 27.0091 23.5369 26.9615 23.3846 26.9615C23.2323 26.9615 23.0838 27.0091 22.9599 27.0976L21.1923 28.3582C21.1095 28.412 21.0385 28.482 20.9836 28.564C20.9286 28.646 20.8908 28.7383 20.8725 28.8353C20.8541 28.9323 20.8557 29.032 20.8769 29.1284C20.8982 29.2248 20.9388 29.3158 20.9962 29.3961C21.0536 29.4764 21.1267 29.5442 21.2111 29.5955C21.2955 29.6467 21.3893 29.6804 21.487 29.6944C21.5848 29.7083 21.6843 29.7024 21.7797 29.6768C21.875 29.6513 21.9642 29.6067 22.0418 29.5457L23.3846 28.5902L24.7767 29.5841C24.8544 29.645 24.9436 29.6896 25.0389 29.7152C25.1343 29.7407 25.2338 29.7467 25.3315 29.7327C25.4292 29.7187 25.5231 29.6851 25.6075 29.6339C25.6918 29.5826 25.7649 29.5148 25.8224 29.4345C25.8798 29.3542 25.9204 29.2631 25.9416 29.1667C25.9629 29.0703 25.9644 28.9706 25.9461 28.8736C25.9278 28.7766 25.89 28.6844 25.835 28.6024C25.78 28.5204 25.709 28.4504 25.6262 28.3966V28.3957ZM33.7743 31.3525C34.6138 29.7997 35.0769 27.7225 35.0769 25.5C35.0769 23.2775 34.6138 21.1985 33.7743 19.6475C33.0107 18.238 32.0461 17.4615 31.0577 17.4615C30.0693 17.4615 29.1047 18.238 28.3411 19.6475C27.5016 21.1985 27.0385 23.2775 27.0385 25.5C27.0385 27.7225 27.5016 29.8015 28.3411 31.3525C29.1047 32.762 30.0693 33.5385 31.0577 33.5385C32.0461 33.5385 33.0107 32.762 33.7743 31.3525Z" fill="black"/>
</svg>
