<svg width="56" height="50" viewBox="0 0 56 50" fill="none" xmlns="http://www.w3.org/2000/svg">
<rect width="56" height="50" rx="6" fill="#D9D9D9"/>
<path d="M28 14C21.95 14 17 18.95 17 25C17 31.05 21.95 36 28 36C34.05 36 39 31.05 39 25C39 18.95 34.05 14 28 14ZM36.8 25H32.4C32.4 23.35 31.52 21.92 30.2 21.26L32.4 17.41C35.04 18.95 36.8 21.7 36.8 25ZM28 22.8C29.21 22.8 30.2 23.79 30.2 25C30.2 26.21 29.21 27.2 28 27.2C26.79 27.2 25.8 26.21 25.8 25C25.8 23.79 26.79 22.8 28 22.8ZM23.6 17.41C24.26 18.51 25.03 19.94 25.8 21.26C24.48 22.03 23.6 23.46 23.6 25H19.2C19.2 21.7 20.96 18.95 23.6 17.41ZM23.6 32.59C24.26 31.49 25.03 30.06 25.8 28.74C26.46 29.07 27.23 29.4 28 29.4C28.77 29.4 29.54 29.18 30.2 28.74L32.4 32.59C31.08 33.36 29.65 33.8 28 33.8C26.35 33.8 24.92 33.36 23.6 32.59Z" fill="black"/>
</svg>
